<?xml version="1.0" encoding="utf-8"?>
<!-- Generator: Adobe Illustrator 15.0.2, SVG Export Plug-In . SVG Version: 6.00 Build 0)  -->
<!DOCTYPE svg PUBLIC "-//W3C//DTD SVG 1.1//EN" "http://www.w3.org/Graphics/SVG/1.1/DTD/svg11.dtd">
<svg version="1.1" id="Layer_1" xmlns="http://www.w3.org/2000/svg" xmlns:xlink="http://www.w3.org/1999/xlink" x="0px" y="0px"
	 width="200px" height="50px" viewBox="0 0 200 50" enable-background="new 0 0 200 50" xml:space="preserve">
<g>
	<path fill="#FFFFFF" stroke="#FFFFFF" stroke-miterlimit="10" d="M157.852,22.877c-2.771,0-4.931,2.41-4.931,5.688
		c0,3.311,2.159,5.65,4.931,5.65c2.772,0,4.932-2.375,4.932-5.688C162.783,25.252,160.624,22.877,157.852,22.877z"/>
	<path fill="#FFFFFF" stroke="#FFFFFF" stroke-miterlimit="10" d="M61.733,22.264c-2.592,0-4.644,1.873-4.859,4.68h9.791
		C66.412,24.137,64.36,22.264,61.733,22.264z"/>
	<path fill="#FFFFFF" stroke="#FFFFFF" stroke-miterlimit="10" d="M0,0v50h200V0H0z M50.284,37.959H32.286V12.402h4.967v21.201
		h13.031V37.959z M71.523,30.076H56.945c0.252,2.951,2.484,4.715,5.003,4.715c1.908,0,3.852-1.008,4.463-2.557l4.14,1.152
		c-1.368,2.881-4.607,4.932-8.783,4.932c-6.083,0-9.935-4.463-9.935-9.684c0-5.363,3.815-9.861,9.971-9.861s9.827,4.57,9.827,9.682
		C71.631,29.068,71.596,29.68,71.523,30.076z M80.381,38.283c-2.664,0-4.895-1.297-4.895-4.645V22.805h-2.448v-3.707h2.448v-6.119
		h4.823v6.119h3.996v3.707h-3.996v9.215c0,1.332,0.828,1.836,1.836,1.836s2.052-0.432,2.627-0.684l0.972,3.814
		C84.449,37.562,82.433,38.283,80.381,38.283z M92.657,20.105h-3.959v-3.852c-0.072-1.008-0.9-1.152-1.224-1.152v-3.42
		c2.231,0,5.183,0.793,5.183,3.672V20.105z M104.141,38.318c-3.096,0-6.767-0.973-8.999-2.52l1.944-3.275
		c2.375,1.547,4.679,2.34,6.947,2.34c2.016,0,3.239-0.756,3.239-2.088s-1.26-1.801-4.463-2.557c-4.931-1.15-6.731-2.375-6.731-5.254
		c0-3.852,3.275-6.229,7.595-6.229c2.664,0,5.435,0.9,7.739,2.34l-1.98,2.988c-2.088-1.332-3.924-1.908-5.795-1.908
		c-1.728,0-3.06,0.648-3.06,2.123c0,1.297,0.972,1.656,3.851,2.377c5.363,1.295,7.524,2.52,7.524,5.688
		C111.952,36.016,108.892,38.318,104.141,38.318z M145.322,37.959h-4.104v-2.881c-2.016,2.088-4.212,3.061-6.804,3.061
		c-6.551,0-11.807-6.264-11.807-13.104c0-6.982,5.22-12.812,12.131-12.812c4.644,0,8.062,2.195,9.719,5.578l-3.708,2.736
		c-1.224-2.52-3.563-3.924-6.19-3.924c-4.176,0-6.947,3.959-6.947,8.566c0,4.824,3.06,8.566,7.235,8.566
		c2.339,0,4.463-1.15,6.371-3.49v-1.801h-5.147V24.82h9.251V37.959z M157.852,38.318c-6.155,0-9.898-4.572-9.898-9.754
		c0-5.256,3.779-9.791,9.898-9.791s9.863,4.535,9.863,9.791C167.715,33.746,164.007,38.318,157.852,38.318z"/>
</g>
</svg>
