<?xml version="1.0" encoding="utf-8"?>
<!-- Generator: Adobe Illustrator 15.0.2, SVG Export Plug-In . SVG Version: 6.00 Build 0)  -->
<!DOCTYPE svg PUBLIC "-//W3C//DTD SVG 1.1//EN" "http://www.w3.org/Graphics/SVG/1.1/DTD/svg11.dtd">
<svg version="1.1" id="Layer_1" xmlns="http://www.w3.org/2000/svg" xmlns:xlink="http://www.w3.org/1999/xlink" x="0px" y="0px"
	 width="600px" height="100px" viewBox="0 0 600 100" enable-background="new 0 0 600 100" xml:space="preserve">
<g>
	<path fill="#FFFFFF" d="M265.584,34.591c-8.208,0-12.385,7.704-12.385,15.409c0,7.849,4.393,15.408,12.457,15.408
		c8.209,0,12.313-7.92,12.313-15.552C277.97,41.936,273.505,34.591,265.584,34.591z"/>
	<polygon fill="#FFFFFF" points="358.967,55.904 370.992,55.904 365.087,36.895 	"/>
	<path fill="#FFFFFF" d="M0,0v100h600V0H0z M122.306,59.001h-10.369V75.49h-11.809V24.365h21.818
		c9.721,0,16.706,8.785,16.706,17.282C138.652,50.576,132.099,59.001,122.306,59.001z M172.203,75.49l-3.96-11.449H152.33
		l-3.888,11.449h-12.529l19.658-51.125h9.577l19.586,51.125H172.203z M234.268,75.49h-9.505l-23.546-29.234V75.49h-11.809V24.365
		h9.217l23.834,30.027V24.365h11.809V75.49z M265.513,75.922c-14.545,0-24.338-12.889-24.338-26.065
		c0-13.538,10.369-25.779,24.554-25.779c14.617,0,24.266,13.033,24.266,25.995C289.995,63.537,279.698,75.922,265.513,75.922z
		 M326.713,75.49l-10.297-16.489h-7.705V75.49h-11.809V24.365h23.042c9.649,0,16.706,8.785,16.706,17.282
		c0,6.264-3.24,12.024-8.354,14.833l11.737,19.01H326.713z M376.969,75.49l-3.961-11.449h-15.913l-3.888,11.449h-12.529
		l19.657-51.125h9.577l19.585,51.125H376.969z M446.307,75.49h-11.81V44.888l-11.089,22.249h-6.337l-11.089-22.249V75.49h-11.809
		V24.365h12.817L420.24,51.08l13.321-26.715h12.745V75.49z M487.343,75.49l-3.961-11.449h-15.913L463.58,75.49h-12.528
		l19.657-51.125h9.577l19.585,51.125H487.343z"/>
	<polygon fill="#FFFFFF" points="154.202,55.904 166.227,55.904 160.322,36.895 	"/>
	<path fill="#FFFFFF" d="M319.152,34.734h-10.441v13.97h10.801c2.809,0,5.113-2.953,5.113-7.057
		C324.625,37.471,321.816,34.734,319.152,34.734z"/>
	<path fill="#FFFFFF" d="M121.154,34.734h-9.217v13.97h9.649c2.736,0,5.112-2.448,5.112-7.057
		C126.699,36.895,123.891,34.734,121.154,34.734z"/>
	<polygon fill="#FFFFFF" points="469.341,55.904 481.366,55.904 475.461,36.895 	"/>
</g>
</svg>
